<?xml version="1.0" encoding="utf-8"?>
<!-- Generator: Adobe Illustrator 24.1.1, SVG Export Plug-In . SVG Version: 6.00 Build 0)  -->
<svg version="1.1" id="b6117b06-2b45-45bc-b789-4a82ab6612dd"
	 xmlns="http://www.w3.org/2000/svg" xmlns:xlink="http://www.w3.org/1999/xlink" x="0px" y="0px" viewBox="0 0 1185 589"
	 style="enable-background:new 0 0 1185 589;" xml:space="preserve">
<style type="text/css">
	.st0{fill:#BDBDBD;}
	.st1{fill:#04463F;}
	.st2{fill:#63CEFF;}
	.st3{opacity:0.5;fill:#006066;enable-background:new    ;}
	.st4{fill:#3F3D56;}
	.st5{fill:#F2F2F2;}
</style>
<rect x="898.2" y="168.8" class="st0" width="255" height="2"/>
<path class="st0" d="M683.8,30.7H423.6v-5.4h-118v5.4H44.4c-9.7,0-17.6,7.9-17.6,17.6l0,0v356.3c0,9.7,7.9,17.6,17.6,17.6h639.4
	c9.7,0,17.6-7.9,17.6-17.6V48.3C701.4,38.5,693.5,30.7,683.8,30.7L683.8,30.7z"/>
<rect x="50.4" y="61.8" class="st1" width="627.4" height="353.9"/>
<circle class="st2" cx="363.6" cy="45.7" r="6.4"/>
<polygon class="st3" points="498.4,415.7 50.4,415.7 50.4,61.8 "/>
<rect x="510" y="252.6" class="st4" width="58.6" height="12.2"/>
<rect x="439.1" y="157.3" class="st4" width="200.3" height="5.2"/>
<rect x="439.1" y="173.9" class="st4" width="200.3" height="5.2"/>
<rect x="439.1" y="190.5" class="st4" width="200.3" height="5.2"/>
<rect x="439.1" y="207.1" class="st4" width="200.3" height="5.2"/>
<rect x="439.1" y="223.8" class="st4" width="200.3" height="5.2"/>
<rect x="614.9" y="68.9" class="st5" width="24.5" height="24.5"/>
<path class="st4" d="M650.8,104.8H621V75.1h29.7L650.8,104.8L650.8,104.8z M622.3,103.5h27.2V76.3h-27.2V103.5z"/>
<path class="st0" d="M719,409.2h-61.2v-4.4c0-0.5-0.4-0.9-0.9-0.9l0,0h-21c-0.5,0-0.9,0.4-0.9,0.9l0,0v4.4h-13.1v-4.4
	c0-0.5-0.4-0.9-0.9-0.9l0,0h-21c-0.5,0-0.9,0.4-0.9,0.9l0,0v4.4H586v-4.4c0-0.5-0.4-0.9-0.9-0.9l0,0h-21c-0.5,0-0.9,0.4-0.9,0.9l0,0
	v4.4h-13.1v-4.4c0-0.5-0.4-0.9-0.9-0.9l0,0h-21c-0.5,0-0.9,0.4-0.9,0.9l0,0v4.4h-13.1v-4.4c0-0.5-0.4-0.9-0.9-0.9l0,0h-21
	c-0.5,0-0.9,0.4-0.9,0.9l0,0v4.4h-13.1v-4.4c0-0.5-0.4-0.9-0.9-0.9l0,0h-21c-0.5,0-0.9,0.4-0.9,0.9l0,0v4.4h-13.1v-4.4
	c0-0.5-0.4-0.9-0.9-0.9l0,0H277.3c-0.5,0-0.9,0.4-0.9,0.9l0,0v4.4h-13.1v-4.4c0-0.5-0.4-0.9-0.9-0.9l0,0h-21c-0.5,0-0.9,0.4-0.9,0.9
	l0,0v4.4h-13.1v-4.4c0-0.5-0.4-0.9-0.9-0.9l0,0h-21c-0.5,0-0.9,0.4-0.9,0.9l0,0v4.4h-13.1v-4.4c0-0.5-0.4-0.9-0.9-0.9l0,0h-21
	c-0.5,0-0.9,0.4-0.9,0.9l0,0v4.4h-13.1v-4.4c0-0.5-0.4-0.9-0.9-0.9l0,0h-21c-0.5,0-0.9,0.4-0.9,0.9l0,0v4.4h-13.1v-4.4
	c0-0.5-0.4-0.9-0.9-0.9l0,0H98c-0.5,0-0.9,0.4-0.9,0.9l0,0v4.4H84v-4.4c0-0.5-0.4-0.9-0.9-0.9l0,0h-21c-0.5,0-0.9,0.4-0.9,0.9l0,0
	v4.4H21c-11.6,0-21,9.4-21,21v9.5c0,11.6,9.4,21,21,21h698c11.6,0,21-9.4,21-21v-9.5C740,418.6,730.6,409.2,719,409.2z"/>
<rect x="586.2" y="44.5" class="st0" width="255" height="2"/>
<rect x="796" y="34" class="st1" width="28" height="28"/>
<path class="st4" d="M841,46h-34V12h34V46z M808.5,44.5h31v-31h-31V44.5z"/>
<path class="st0" d="M1057.2,244h-2.4v-65.2c0-20.8-16.9-37.7-37.7-37.7l0,0H879c-20.8,0-37.7,16.9-37.7,37.7l0,0v357.5
	c0,20.8,16.9,37.7,37.7,37.7l0,0h138.1c20.8,0,37.7-16.9,37.7-37.7l0,0v-246h2.4V244z"/>
<path class="st1" d="M1046.8,181v357c0,15.6-12.6,28.2-28.2,28.2H879.9c-15.6,0-28.2-12.6-28.2-28.2V181c0-15.6,12.6-28.2,28.2-28.2
	h16.8c-2.8,6.8,0.5,14.7,7.3,17.4c1.6,0.7,3.3,1,5.1,1h79.1c7.4,0,13.4-6,13.4-13.4c0-1.7-0.3-3.4-1-5.1h18
	C1034.2,152.9,1046.8,165.5,1046.8,181z"/>
<rect x="928.6" y="388.2" class="st4" width="41.3" height="12.2"/>
<rect x="878.6" y="292.9" class="st4" width="141.2" height="5.2"/>
<rect x="878.6" y="309.5" class="st4" width="141.2" height="5.2"/>
<rect x="878.6" y="326.1" class="st4" width="141.2" height="5.2"/>
<rect x="878.6" y="342.7" class="st4" width="141.2" height="5.2"/>
<rect x="878.6" y="359.4" class="st4" width="141.2" height="5.2"/>
<rect x="929.7" y="223.2" class="st5" width="24.5" height="24.5"/>
<path class="st4" d="M939.1,229.3V259h29.7v-29.7H939.1z M967.5,257.8h-27.2v-27.2h27.2V257.8z"/>
<circle class="st5" cx="953.9" cy="537.7" r="22"/>
<rect x="1108" y="158.3" class="st1" width="28" height="28"/>
<path class="st4" d="M1153,170.3h-34v-34h34V170.3z M1120.5,168.8h31v-31h-31V168.8z"/>
<rect x="150.7" y="348.1" class="st4" width="58.6" height="12.2"/>
<rect x="79.8" y="252.8" class="st4" width="200.3" height="5.2"/>
<rect x="79.8" y="269.4" class="st4" width="200.3" height="5.2"/>
<rect x="79.8" y="286" class="st4" width="200.3" height="5.2"/>
<rect x="79.8" y="302.6" class="st4" width="200.3" height="5.2"/>
<rect x="79.8" y="319.3" class="st4" width="200.3" height="5.2"/>
</svg>
