<?xml version="1.0" encoding="utf-8"?>
<!-- Generator: Adobe Illustrator 24.1.1, SVG Export Plug-In . SVG Version: 6.00 Build 0)  -->
<svg version="1.1" id="d73490ac-7a9f-41f3-9c2f-a04fe0e68190"
	 xmlns="http://www.w3.org/2000/svg" xmlns:xlink="http://www.w3.org/1999/xlink" x="0px" y="0px" viewBox="0 0 976.7 548"
	 style="enable-background:new 0 0 976.7 548;" xml:space="preserve">
<style type="text/css">
	.st0{fill:#63CEFF;}
	.st1{fill:#FC6681;}
	.st2{fill:#535461;}
	.st3{opacity:0.1;enable-background:new    ;}
	.st4{fill:#BDBDBD;}
	.st5{fill:#04463F;}
	.st6{fill:none;stroke:#535461;stroke-width:2;stroke-miterlimit:10;}
	.st7{opacity:0.1;fill:none;stroke:#000000;stroke-width:2;stroke-miterlimit:10;enable-background:new    ;}
	.st8{fill:#E2E2EC;}
	.st9{fill:none;stroke:#E2E2EC;stroke-width:2;stroke-miterlimit:10;}
	.st10{fill:none;}
</style>
<path class="st0" d="M178.8,280c-11.4,10-62.6,18.6-62.6,18.6s14.8-49.7,26.1-59.8c11.5-9.9,28.9-8.6,38.8,2.9
	C190.8,253,189.8,270,178.8,280L178.8,280z"/>
<path class="st0" d="M181.2,391.4c-9.5,11.8-58.5,28.9-58.5,28.9s6.2-51.5,15.7-63.3c9.6-11.8,26.9-13.6,38.7-4
	C188.7,362.5,190.5,379.6,181.2,391.4z"/>
<path class="st1" d="M178.8,280c-11.4,10-62.6,18.6-62.6,18.6s14.8-49.7,26.1-59.8c11.5-9.9,28.9-8.6,38.8,2.9
	C190.8,253,189.8,270,178.8,280L178.8,280z"/>
<path class="st1" d="M181.2,391.4c-9.5,11.8-58.5,28.9-58.5,28.9s6.2-51.5,15.7-63.3c9.6-11.8,26.9-13.6,38.7-4
	C188.7,362.5,190.5,379.6,181.2,391.4z"/>
<path class="st2" d="M209.2,76.1v-11c0,0,48-27,87,0v10L209.2,76.1z"/>
<path class="st2" d="M646.2,76.1v-11c0,0,48-27,87,0v10L646.2,76.1z"/>
<path class="st3" d="M209.2,76.1v-11c0,0,48-27,87,0v10L209.2,76.1z"/>
<path class="st3" d="M646.2,76.1v-11c0,0,48-27,87,0v10L646.2,76.1z"/>
<path class="st4" d="M353.2,75.1h-47c0,0-12-14-52-13s-48,13-48,13s-39.5,26.5-48.5,59.5c0,0-48.5,145.5-49.5,259.5s43,130,66,133
	s64-1,104-102l17-59c0,0,3-35,39-13s68-12,68-12h135c0,0,45,28,86,6c0,0,16-21,31,50c0,0,46,146,117,131s63-137,63-137
	s-9.5-186.5-48.5-252.5c0,0-37.5-68.5-62.5-71.5c0,0-54-10-75-1l-12,10L353.2,75.1z"/>
<circle class="st5" cx="244.2" cy="173.1" r="87"/>
<circle class="st5" cx="698.2" cy="173.1" r="87"/>
<path class="st4" d="M259.3,153.7l-11.6,10.3c-2,1.8-5.1,1.8-7.1,0L229,153.7c-1.1-1-1.8-2.5-1.8-4v-28.2c0-3,2.4-5.4,5.4-5.4h23.3
	c3,0,5.4,2.4,5.4,5.4c0,0,0,0,0,0v28.2C261.2,151.2,260.5,152.7,259.3,153.7z"/>
<path class="st4" d="M259.3,192.5l-11.6-10.3c-2-1.8-5.1-1.8-7.1,0L229,192.5c-1.1,1-1.8,2.5-1.8,4v28.2c0,3,2.4,5.4,5.4,5.4
	c0,0,0,0,0,0h23.3c3,0,5.4-2.4,5.4-5.4c0,0,0,0,0,0v-28.2C261.2,194.9,260.5,193.5,259.3,192.5z"/>
<path class="st4" d="M224.8,188.3l10.3-11.6c1.8-2,1.8-5.1,0-7.1l-10.3-11.6c-1-1.1-2.5-1.8-4-1.8h-28.2c-3,0-5.4,2.4-5.4,5.4v23.3
	c0,3,2.4,5.4,5.4,5.4c0,0,0,0,0,0h28.2C222.3,190.1,223.8,189.4,224.8,188.3z"/>
<path class="st4" d="M263.6,188.3l-10.2-11.6c-1.8-2-1.8-5.1,0-7.1l10.3-11.6c1-1.1,2.5-1.8,4-1.8h28.2c3,0,5.4,2.4,5.4,5.4
	c0,0,0,0,0,0v23.3c0,3-2.4,5.4-5.4,5.4c0,0,0,0,0,0h-28.2C266.1,190.1,264.6,189.4,263.6,188.3z"/>
<polygon class="st6" points="229.2,109.1 259.2,109.1 244.2,96.1 "/>
<polygon class="st6" points="229.2,237.1 259.2,237.1 244.2,250.1 "/>
<polygon class="st6" points="180.2,158.1 180.2,188.1 167.2,173.1 "/>
<polygon class="st6" points="308.2,158.1 308.2,188.1 321.2,173.1 "/>
<circle class="st5" cx="362.2" cy="268.1" r="63"/>
<circle class="st4" cx="360.2" cy="258.1" r="42"/>
<circle class="st5" cx="580.2" cy="268.1" r="63"/>
<circle class="st4" cx="578.2" cy="258.1" r="42"/>
<circle class="st7" cx="360.2" cy="258.1" r="28"/>
<circle class="st7" cx="578.2" cy="258.1" r="28"/>
<circle class="st8" cx="473.2" cy="275.1" r="18"/>
<circle class="st8" cx="445.7" cy="215" r="3.9"/>
<circle class="st8" cx="460.4" cy="215" r="3.9"/>
<circle class="st8" cx="458.4" cy="233.6" r="3.9"/>
<circle class="st8" cx="472.2" cy="234.1" r="4"/>
<circle class="st8" cx="485.9" cy="233.6" r="3.9"/>
<circle class="st8" cx="452.5" cy="224.8" r="3.9"/>
<circle class="st8" cx="465.2" cy="225.1" r="4"/>
<circle class="st8" cx="478.2" cy="225.1" r="4"/>
<circle class="st8" cx="491.8" cy="224.8" r="3.9"/>
<circle class="st8" cx="472.2" cy="215.1" r="4"/>
<circle class="st8" cx="486.2" cy="215.1" r="4"/>
<circle class="st8" cx="497.7" cy="215" r="3.9"/>
<path class="st8" d="M323.7,82.1h5c4.7,0,8.5,3.8,8.5,8.5v21c0,4.7-3.8,8.5-8.5,8.5h-5c-4.7,0-8.5-3.8-8.5-8.5v-21
	C315.2,85.9,319,82.1,323.7,82.1z"/>
<path class="st8" d="M615.7,82.1h5c4.7,0,8.5,3.8,8.5,8.5v21c0,4.7-3.8,8.5-8.5,8.5h-5c-4.7,0-8.5-3.8-8.5-8.5v-21
	C607.2,85.9,611,82.1,615.7,82.1z"/>
<circle class="st2" cx="699.2" cy="120.1" r="24"/>
<circle class="st2" cx="648.2" cy="171.1" r="24"/>
<circle class="st2" cx="752.2" cy="168.1" r="24"/>
<circle class="st2" cx="703.2" cy="221.1" r="24"/>
<path class="st5" d="M368.9,68.1h205.5c12,0,21.8,9.7,21.8,21.8v89.5c0,12-9.7,21.8-21.8,21.8H368.9c-12,0-21.8-9.7-21.8-21.8V89.8
	C347.2,77.8,356.9,68.1,368.9,68.1z"/>
<polygon class="st9" points="684.7,130.1 698.7,106.1 713.7,130.1 "/>
<rect x="635.7" y="160.1" class="st9" width="25" height="22"/>
<circle class="st9" cx="752.2" cy="168.1" r="14"/>
<line class="st9" x1="691.7" y1="209.8" x2="714.2" y2="232.3"/>
<line class="st9" x1="714.7" y1="209.8" x2="691.7" y2="231.8"/>
<path class="st10" d="M804.2,266.7"/>
</svg>
