<?xml version="1.0" encoding="utf-8"?>
<!-- Generator: Adobe Illustrator 24.1.1, SVG Export Plug-In . SVG Version: 6.00 Build 0)  -->
<svg version="1.1" id="_x32_aaf6dea-f5da-4445-9251-37af7c547efe"
	 xmlns="http://www.w3.org/2000/svg" xmlns:xlink="http://www.w3.org/1999/xlink" x="0px" y="0px" viewBox="0 0 838 773.5"
	 style="enable-background:new 0 0 838 773.5;" xml:space="preserve">
<style type="text/css">
	.st0{fill:url(#SVGID_1_);}
	.st1{fill:#FFFFFF;}
	.st2{fill:#04463F;}
	.st3{fill:none;}
	.st4{fill:url(#SVGID_2_);}
	.st5{fill:url(#SVGID_3_);}
	.st6{clip-path:url(#SVGID_5_);}
	.st7{fill:url(#SVGID_6_);}
	.st8{clip-path:url(#SVGID_8_);}
	.st9{fill:#BDBDBD;}
	.st10{fill:#006066;}
</style>
<linearGradient id="SVGID_1_" gradientUnits="userSpaceOnUse" x1="624.133" y1="-31.0984" x2="624.133" y2="647.7616" gradientTransform="matrix(0.9902 0.1399 0.1399 -0.9902 -165.6 595.7688)">
	<stop  offset="0" style="stop-color:#808080;stop-opacity:0.25"/>
	<stop  offset="0.54" style="stop-color:#808080;stop-opacity:0.12"/>
	<stop  offset="1" style="stop-color:#808080;stop-opacity:0.1"/>
</linearGradient>
<polygon class="st0" points="153.1,672.2 248,0 838,83.3 743,755.5 "/>
<rect x="170.7" y="82.9" transform="matrix(0.1399 -0.9902 0.9902 0.1399 56.5129 812.7703)" class="st1" width="650.7" height="581.8"/>
<rect id="_x31_5fa7734-96da-431a-a67f-b368dfbdb931" x="270.9" y="35.6" transform="matrix(0.1399 -0.9902 0.9902 0.1399 138.8276 757.8615)" class="st2" width="469.5" height="526.9"/>
<rect id="_x36_968f8e0-9aea-4d3d-90e1-4904e891fc16" x="270.9" y="35.6" transform="matrix(0.1399 -0.9902 0.9902 0.1399 138.8276 757.8615)" class="st3" width="469.5" height="526.9"/>
<linearGradient id="SVGID_2_" gradientUnits="userSpaceOnUse" x1="364.825" y1="0.48" x2="364.825" y2="679.34" gradientTransform="matrix(1 0 0 -1 0 774)">
	<stop  offset="0" style="stop-color:#808080;stop-opacity:0.25"/>
	<stop  offset="0.54" style="stop-color:#808080;stop-opacity:0.12"/>
	<stop  offset="1" style="stop-color:#808080;stop-opacity:0.1"/>
</linearGradient>
<rect x="66.9" y="94.7" class="st4" width="595.8" height="678.9"/>
<rect x="73.9" y="104.8" class="st1" width="581.8" height="650.7"/>
<linearGradient id="SVGID_3_" gradientUnits="userSpaceOnUse" x1="363.245" y1="111.74" x2="363.245" y2="594.71" gradientTransform="matrix(1 0 0 -1 0 774)">
	<stop  offset="0" style="stop-color:#808080;stop-opacity:0.25"/>
	<stop  offset="0.54" style="stop-color:#808080;stop-opacity:0.12"/>
	<stop  offset="1" style="stop-color:#808080;stop-opacity:0.1"/>
</linearGradient>
<rect x="96.4" y="116.1" class="st5" width="533.6" height="483"/>
<g>
	<defs>
		<rect id="SVGID_4_" x="96.4" y="116" width="533.6" height="483"/>
	</defs>
	<clipPath id="SVGID_5_">
		<use xlink:href="#SVGID_4_"  style="overflow:visible;"/>
	</clipPath>
	<g class="st6">
		
			<linearGradient id="SVGID_6_" gradientUnits="userSpaceOnUse" x1="551.8546" y1="62.0206" x2="551.8546" y2="440.7268" gradientTransform="matrix(1 0 0 -1 -147.54 710.76)">
			<stop  offset="0" style="stop-color:#808080;stop-opacity:0.25"/>
			<stop  offset="0.54" style="stop-color:#808080;stop-opacity:0.12"/>
			<stop  offset="1" style="stop-color:#808080;stop-opacity:0.1"/>
		</linearGradient>
		<path class="st7" d="M211.3,395.8c17.4,19.2,31.8,43,55,54.2c33.7,16.2,74.8-0.1,102.6-25.4s47.3-58.7,73.5-85.7
			c75.3-77.4,203.3-89.2,297.3-37c13.4,7.5,26.5,16.3,35.9,28.4c12.3,15.9,17.6,36.1,21.6,55.9c8.9,44.3,12.6,89.4,11.1,134.5
			c-1,30.7-6.8,65.4-32.1,82.3c-8,5.3-17.2,8.3-26.4,11c-135.9,40.1-280,37.3-421.4,31.3c-105.4-4.5-212-10.8-312.7-43
			c-4.6-1.5-9.5-3.2-12.5-7.1c-3.4-4.4-3.5-10.5-3-16c1.4-18.3,7-35.9,11.2-53.7c8.7-37.1,11.5-75.4,8.3-113.4
			c-2.8-33.7-21.7-62.1,17.3-71.5C98.1,325.6,169.2,349.3,211.3,395.8z"/>
	</g>
</g>
<rect id="_x36_b8b7763-08eb-41e9-84db-926332f3d231" x="100.4" y="120" class="st1" width="526.9" height="469.5"/>
<g>
	<defs>
		<rect id="SVGID_7_" x="100.4" y="120" width="526.9" height="469.5"/>
	</defs>
	<clipPath id="SVGID_8_">
		<use xlink:href="#SVGID_7_"  style="overflow:visible;"/>
	</clipPath>
	<g class="st8">
		<path class="st9" d="M216.8,394.8c17.2,18.7,31.3,41.8,54.3,52.7c33.3,15.8,73.8-0.1,101.3-24.7s46.7-57.1,72.6-83.3
			c74.4-75.2,200.7-86.7,293.5-36c13.3,7.3,26.1,15.8,35.5,27.6c12.2,15.4,17.4,35.1,21.3,54.3c8.8,43,12.4,86.9,10.9,130.8
			c-1,29.8-6.8,63.6-31.7,80c-7.9,5.2-17,8-26,10.7c-134.2,39-276.5,36.3-416.1,30.4c-104.1-4.4-209.3-10.6-308.7-41.8
			c-4.6-1.4-9.4-3.1-12.4-6.9c-3.3-4.3-3.4-10.2-3-15.6c1.4-17.8,6.9-34.9,11.1-52.2c8.6-36.1,11.3-73.3,8.2-110.3
			c-2.8-32.7-21.4-60.4,17.1-69.5C105,326.6,175.3,349.7,216.8,394.8z"/>
	</g>
</g>
<circle class="st10" cx="165.7" cy="185.3" r="38.3"/>
<rect x="448.2" y="435.2" class="st2" width="18" height="138.5"/>
<polygon class="st2" points="516.5,429.5 499.4,419 514.1,421.6 505.8,394.5 485.7,382.2 503.1,385.8 491.4,347.6 471.9,335.6 
	488.7,338.6 477.4,301.8 457.5,289.6 474.6,292.6 457.3,235.9 444.7,277.6 457.3,273.1 442.5,284.8 433.4,315.1 457.3,309.1 
	429.2,329.2 419.4,361.6 444.9,355.3 414.9,376.7 407.3,401.8 426.9,396.9 403.8,413.4 390.8,456.6 524.8,456.6 "/>
<rect x="73.9" y="671.1" class="st2" width="581.8" height="84.4"/>
</svg>
