<?xml version="1.0" encoding="utf-8"?>
<!-- Generator: Adobe Illustrator 24.1.1, SVG Export Plug-In . SVG Version: 6.00 Build 0)  -->
<svg version="1.1" id="a120547a-517b-40ce-9327-ed5d479d1fdc"
	 xmlns="http://www.w3.org/2000/svg" xmlns:xlink="http://www.w3.org/1999/xlink" x="0px" y="0px" viewBox="0 0 1008.9 607.5"
	 style="enable-background:new 0 0 1008.9 607.5;" xml:space="preserve">
<style type="text/css">
	.st0{fill:#E6E6E6;}
	.st1{fill:#FFFFFF;}
	.st2{fill:#3F3D56;}
	.st3{fill:#04463F;}
	.st4{fill:#006066;}
</style>
<path class="st0" d="M1008.9,474c0,8.5-6.8,15.4-15.3,15.4H322.3c-8.5,0-15.3-6.9-15.3-15.4c0,0,0,0,0,0V15.4
	C307,6.9,313.8,0,322.3,0l0,0h671.4c8.5,0,15.3,6.9,15.3,15.4c0,0,0,0,0,0v0V474z"/>
<path class="st1" d="M1001,466.5c0,8.2-6.7,14.9-14.9,14.9l0,0H330.3c-8.2,0-14.9-6.7-14.9-14.9V23.1c0-8.2,6.7-14.9,14.9-14.9l0,0
	h655.8c8.2,0,14.9,6.7,14.9,14.9V466.5z"/>
<path id="b9c54412-061c-4155-b289-fb4c23e4a64e" class="st0" d="M350.4,27.5h616.2c4.9,0,8.8,4,8.8,8.9v415.3c0,4.9-4,8.9-8.8,8.9
	H350.4c-4.9,0-8.9-4-8.9-8.9l0,0V36.3C341.6,31.4,345.5,27.5,350.4,27.5C350.4,27.5,350.4,27.5,350.4,27.5z"/>
<path class="st1" d="M358.2,37.4h600c4.9,0,8.8,4,8.8,8.9v393.1c0,4.9-4,8.9-8.8,8.9h-600c-4.9,0-8.9-4-8.9-8.9l0,0V46.3
	C349.4,41.4,353.3,37.4,358.2,37.4L358.2,37.4z"/>
<path class="st2" d="M781.8,310.5c-2.4,0-4.7-0.5-6.9-1.5c-0.5-0.2-1-0.5-1.4-0.8L730,277.6l0,0c-4.5-3.2-7.2-8.3-7.2-13.8v-41.9
	c0-5.5,2.7-10.6,7.2-13.8l43.6-30.7c0.4-0.3,0.9-0.6,1.4-0.8c8.5-3.8,18.5,0,22.3,8.6c1,2.2,1.5,4.5,1.5,6.9v101.6
	C798.7,303,791.2,310.5,781.8,310.5L781.8,310.5L781.8,310.5z"/>
<path class="st2" d="M684.3,318.8H562.6c-24.8,0-44.9-16.1-44.9-35.8v-80.1c0-19.8,20.1-35.8,44.9-35.8h121.9
	c24.6,0,44.6,15.9,44.6,35.6v80.4C729.2,302.7,709.1,318.7,684.3,318.8z"/>
<circle class="st0" cx="900.9" cy="386.8" r="36.2"/>
<path class="st1" d="M919.7,386.2l-28.8-16.6c-0.4-0.2-0.8-0.1-1,0.3c-0.1,0.1-0.1,0.2-0.1,0.4v33.3c0,0.4,0.3,0.7,0.7,0.7
	c0.1,0,0.3,0,0.4-0.1l28.8-16.6c0.4-0.2,0.5-0.7,0.3-1C919.9,386.3,919.8,386.2,919.7,386.2l-28.8-16.6c-0.4-0.2-0.8-0.1-1,0.3
	c-0.1,0.1-0.1,0.2-0.1,0.4v33.3c0,0.4,0.3,0.7,0.7,0.7c0.1,0,0.3,0,0.4-0.1l28.8-16.6c0.4-0.2,0.5-0.7,0.3-1
	C919.9,386.3,919.8,386.2,919.7,386.2z"/>
<path class="st0" d="M853.9,529c0,8.5-6.8,15.4-15.3,15.4H167.3c-8.5,0-15.3-6.9-15.3-15.4l0,0V70.4c0-8.5,6.8-15.4,15.3-15.4h671.4
	c8.5,0,15.3,6.9,15.3,15.4c0,0,0,0,0,0v0V529z"/>
<path class="st1" d="M846,521.5c0,8.2-6.7,14.9-14.9,14.9H175.3c-8.2,0-14.9-6.7-14.9-14.9V78.1c0-8.2,6.7-14.9,14.9-14.9l0,0h655.8
	c8.2,0,14.9,6.7,14.9,14.9V521.5z"/>
<path id="a7242049-80b4-49e1-bd08-67354734c824" class="st0" d="M195.4,82.5h616.2c4.9,0,8.8,4,8.8,8.8v415.3c0,4.9-4,8.8-8.8,8.8
	H195.4c-4.9,0-8.9-4-8.9-8.9l0,0V91.3C186.6,86.4,190.5,82.5,195.4,82.5L195.4,82.5L195.4,82.5z"/>
<path class="st1" d="M203.2,92.4h600c4.9,0,8.8,4,8.8,8.8v393.1c0,4.9-4,8.9-8.8,8.9h-600c-4.9,0-8.9-4-8.9-8.9l0,0V101.3
	C194.4,96.4,198.3,92.4,203.2,92.4L203.2,92.4z"/>
<path class="st2" d="M626.8,365.5c-2.4,0-4.7-0.5-6.9-1.5c-0.5-0.2-1-0.5-1.4-0.8L575,332.6l0,0c-4.5-3.2-7.2-8.3-7.2-13.8v-41.9
	c0-5.5,2.7-10.6,7.2-13.8l43.6-30.7c0.4-0.3,0.9-0.6,1.4-0.8c8.5-3.8,18.5,0,22.3,8.6c1,2.2,1.5,4.5,1.5,6.9v101.6
	C643.7,358,636.2,365.5,626.8,365.5L626.8,365.5L626.8,365.5z"/>
<path class="st2" d="M529.3,373.8H407.6c-24.8,0-44.9-16.1-44.9-35.8v-80.1c0-19.8,20.1-35.8,44.9-35.8h121.9
	c24.6,0,44.6,15.9,44.6,35.6v80.4C574.2,357.7,554.1,373.7,529.3,373.8z"/>
<circle class="st0" cx="745.9" cy="441.8" r="36.2"/>
<path class="st1" d="M764.7,441.2l-28.8-16.6c-0.4-0.2-0.8-0.1-1,0.3c-0.1,0.1-0.1,0.2-0.1,0.4v33.3c0,0.4,0.3,0.7,0.7,0.7
	c0.1,0,0.3,0,0.4-0.1l28.8-16.6c0.4-0.2,0.5-0.7,0.3-1C764.9,441.3,764.8,441.2,764.7,441.2l-28.8-16.6c-0.4-0.2-0.8-0.1-1,0.3
	c-0.1,0.1-0.1,0.2-0.1,0.4v33.3c0,0.4,0.3,0.7,0.7,0.7c0.1,0,0.3,0,0.4-0.1l28.8-16.6c0.4-0.2,0.5-0.7,0.3-1
	C764.9,441.3,764.8,441.2,764.7,441.2z"/>
<path class="st0" d="M701.9,592c0,8.5-6.8,15.4-15.3,15.4H15.3C6.8,607.4,0,600.5,0,592c0,0,0,0,0,0V133.4c0-8.5,6.8-15.4,15.3-15.4
	l0,0h671.4c8.5,0,15.3,6.9,15.3,15.4l0,0v0V592z"/>
<path class="st1" d="M694,584.5c0,8.2-6.7,14.9-14.9,14.9H23.3c-8.2,0-14.9-6.7-14.9-14.9V141.1c0-8.2,6.7-14.9,14.9-14.9h0h655.8
	c8.2,0,14.9,6.7,14.9,14.9V584.5z"/>
<path id="b7a050eb-0cb2-44a8-b642-35d340850eff" class="st0" d="M43.4,145.5h616.2c4.9,0,8.8,4,8.8,8.9v415.3c0,4.9-4,8.8-8.8,8.8
	H43.4c-4.9,0-8.8-4-8.8-8.8V154.3C34.6,149.4,38.5,145.5,43.4,145.5L43.4,145.5L43.4,145.5z"/>
<path class="st1" d="M51.2,155.4h600c4.9,0,8.8,4,8.8,8.9v393.1c0,4.9-4,8.8-8.8,8.8h-600c-4.9,0-8.8-4-8.8-8.8V164.3
	C42.4,159.4,46.3,155.4,51.2,155.4z"/>
<path class="st3" d="M474.8,428.5c-2.4,0-4.7-0.5-6.9-1.5c-0.5-0.2-1-0.5-1.4-0.8L423,395.6l0,0c-4.5-3.2-7.2-8.3-7.2-13.8v-41.9
	c0-5.5,2.7-10.6,7.2-13.8l43.6-30.7c0.4-0.3,0.9-0.6,1.4-0.8c8.5-3.8,18.5,0,22.3,8.6c1,2.2,1.5,4.5,1.5,6.9v101.6
	C491.7,421,484.2,428.5,474.8,428.5L474.8,428.5L474.8,428.5z"/>
<path class="st3" d="M377.3,436.8H255.6c-24.8,0-44.9-16.1-44.9-35.8v-80.1c0-19.8,20.1-35.8,44.9-35.8h121.9
	c24.6,0,44.6,15.9,44.6,35.6v80.4C422.2,420.7,402.1,436.7,377.3,436.8z"/>
<circle class="st4" cx="593.9" cy="504.8" r="36.2"/>
<path class="st1" d="M612.7,504.2l-28.8-16.6c-0.4-0.2-0.8-0.1-1,0.3c-0.1,0.1-0.1,0.2-0.1,0.4v33.3c0,0.4,0.3,0.7,0.7,0.7
	c0.1,0,0.3,0,0.4-0.1l28.8-16.6c0.4-0.2,0.5-0.7,0.3-1C612.9,504.3,612.8,504.2,612.7,504.2l-28.8-16.6c-0.4-0.2-0.8-0.1-1,0.3
	c-0.1,0.1-0.1,0.2-0.1,0.4v33.3c0,0.4,0.3,0.7,0.7,0.7c0.1,0,0.3,0,0.4-0.1l28.8-16.6c0.4-0.2,0.5-0.7,0.3-1
	C612.9,504.3,612.8,504.2,612.7,504.2z"/>
</svg>
